<mxfile host="app.diagrams.net" modified="2023-03-24T18:11:00.731Z" agent="Mozilla/5.0 (Windows NT 10.0; Win64; x64) AppleWebKit/537.36 (KHTML, like Gecko) Chrome/111.0.0.0 Safari/537.36 Edg/111.0.1661.51" etag="HvNXMBadbcyCt6xbD1I_" version="21.1.1" type="device">
  <diagram name="Страница 1" id="25V9_8wqBpbdxgsvuAAT">
    <mxGraphModel dx="792" dy="1138" grid="1" gridSize="10" guides="1" tooltips="1" connect="1" arrows="1" fold="1" page="1" pageScale="1" pageWidth="827" pageHeight="1169" math="0" shadow="0">
      <root>
        <mxCell id="0" />
        <mxCell id="1" parent="0" />
        <mxCell id="0jj6k2Os9TtCiJciOUAI-3" style="edgeStyle=orthogonalEdgeStyle;rounded=0;orthogonalLoop=1;jettySize=auto;html=1;" edge="1" parent="1" source="0jj6k2Os9TtCiJciOUAI-1" target="0jj6k2Os9TtCiJciOUAI-2">
          <mxGeometry relative="1" as="geometry" />
        </mxCell>
        <mxCell id="0jj6k2Os9TtCiJciOUAI-1" value="Начало&lt;br&gt;setTrain" style="ellipse;whiteSpace=wrap;html=1;" vertex="1" parent="1">
          <mxGeometry x="354" y="20" width="120" height="80" as="geometry" />
        </mxCell>
        <mxCell id="0jj6k2Os9TtCiJciOUAI-6" style="edgeStyle=orthogonalEdgeStyle;rounded=0;orthogonalLoop=1;jettySize=auto;html=1;entryX=0.5;entryY=0;entryDx=0;entryDy=0;" edge="1" parent="1" source="0jj6k2Os9TtCiJciOUAI-2" target="0jj6k2Os9TtCiJciOUAI-5">
          <mxGeometry relative="1" as="geometry" />
        </mxCell>
        <mxCell id="0jj6k2Os9TtCiJciOUAI-2" value="&lt;div style=&quot;font-size: 14px; line-height: 19px;&quot;&gt;&lt;span style=&quot;background-color: rgb(255, 255, 255);&quot;&gt;newTrain.index = ftell(file)/sizeof(struct TRAIN)&lt;/span&gt;&lt;/div&gt;" style="rounded=0;whiteSpace=wrap;html=1;" vertex="1" parent="1">
          <mxGeometry x="260" y="130" width="310" height="60" as="geometry" />
        </mxCell>
        <mxCell id="0jj6k2Os9TtCiJciOUAI-8" style="edgeStyle=orthogonalEdgeStyle;rounded=0;orthogonalLoop=1;jettySize=auto;html=1;entryX=0.5;entryY=0;entryDx=0;entryDy=0;" edge="1" parent="1" source="0jj6k2Os9TtCiJciOUAI-5" target="0jj6k2Os9TtCiJciOUAI-7">
          <mxGeometry relative="1" as="geometry" />
        </mxCell>
        <mxCell id="0jj6k2Os9TtCiJciOUAI-5" value="newTrain.from&lt;br&gt;newTrain.to&lt;br&gt;newTrain.number" style="shape=parallelogram;perimeter=parallelogramPerimeter;whiteSpace=wrap;html=1;fixedSize=1;" vertex="1" parent="1">
          <mxGeometry x="350" y="210" width="130" height="60" as="geometry" />
        </mxCell>
        <mxCell id="0jj6k2Os9TtCiJciOUAI-10" style="edgeStyle=orthogonalEdgeStyle;rounded=0;orthogonalLoop=1;jettySize=auto;html=1;" edge="1" parent="1" source="0jj6k2Os9TtCiJciOUAI-7" target="0jj6k2Os9TtCiJciOUAI-9">
          <mxGeometry relative="1" as="geometry" />
        </mxCell>
        <mxCell id="0jj6k2Os9TtCiJciOUAI-7" value="newTrain.time = setTime()" style="rounded=0;whiteSpace=wrap;html=1;" vertex="1" parent="1">
          <mxGeometry x="340" y="300" width="150" height="60" as="geometry" />
        </mxCell>
        <mxCell id="0jj6k2Os9TtCiJciOUAI-9" value="Конец" style="ellipse;whiteSpace=wrap;html=1;" vertex="1" parent="1">
          <mxGeometry x="355" y="380" width="120" height="80" as="geometry" />
        </mxCell>
      </root>
    </mxGraphModel>
  </diagram>
</mxfile>
